<?xml version="1.0" encoding="utf-8"?>
<!-- Generator: Adobe Illustrator 25.1.0, SVG Export Plug-In . SVG Version: 6.00 Build 0)  -->
<svg version="1.1" id="Layer_1" xmlns="http://www.w3.org/2000/svg" xmlns:xlink="http://www.w3.org/1999/xlink" x="0px" y="0px"
	 viewBox="0 0 512 512" style="enable-background:new 0 0 512 512;" xml:space="preserve">
<style type="text/css">
	.st0{fill:url(#SVGID_1_);}
	.st1{fill:url(#SVGID_2_);}
	.st2{fill:url(#SVGID_3_);}
</style>
<linearGradient id="SVGID_1_" gradientUnits="userSpaceOnUse" x1="-531.2062" y1="156.7645" x2="-531.2062" y2="85.9563" gradientTransform="matrix(5.2245 0 0 -5.2245 3176.8237 865.2328)">
	<stop  offset="0" style="stop-color:#D57C29"/>
	<stop  offset="0.2261" style="stop-color:#D4782C"/>
	<stop  offset="0.4603" style="stop-color:#D26B36"/>
	<stop  offset="0.6982" style="stop-color:#CE5746"/>
	<stop  offset="0.9374" style="stop-color:#C83A5C"/>
	<stop  offset="1" style="stop-color:#C63163"/>
</linearGradient>
<path class="st0" d="M461.3,242.5l-96.7-102.4c-5.7-6.3-15.7-6.8-21.9-0.5c-6.3,5.7-6.8,15.7-0.5,21.9l86.2,92l-86.7,91.4
	c-5.7,6.3-5.7,16.2,0.5,21.9c3.1,2.6,6.8,4.2,11,4.2s8.4-1.6,11.5-4.7l96.7-102.4C467,258.2,467,248.7,461.3,242.5z"/>
<linearGradient id="SVGID_2_" gradientUnits="userSpaceOnUse" x1="-586.6915" y1="152.5535" x2="-586.6915" y2="81.7455" gradientTransform="matrix(5.2245 0 0 -5.2245 3176.8237 865.2328)">
	<stop  offset="0" style="stop-color:#D57C29"/>
	<stop  offset="0.2298" style="stop-color:#D4782C"/>
	<stop  offset="0.4679" style="stop-color:#D26B36"/>
	<stop  offset="0.7098" style="stop-color:#CE5747"/>
	<stop  offset="0.953" style="stop-color:#C83A5D"/>
	<stop  offset="0.9955" style="stop-color:#C73462"/>
</linearGradient>
<path class="st1" d="M170.8,161.6c-6.3-5.7-16.2-5.7-21.9,0.5L51.7,264.5c-5.7,6.3-5.7,15.7,0,21.4l96.7,102.4
	c3.1,3.1,7.3,4.7,11.5,4.7c3.7,0,7.8-1.6,11-4.2c6.3-5.7,6.8-15.7,0.5-21.9l-86.7-91.4l86.7-91.4
	C177.1,177.8,177.1,167.8,170.8,161.6z"/>
<linearGradient id="SVGID_3_" gradientUnits="userSpaceOnUse" x1="-559.0538" y1="158.5704" x2="-559.0538" y2="80.3492" gradientTransform="matrix(5.2245 0 0 -5.2245 3176.8237 865.2328)">
	<stop  offset="0" style="stop-color:#D68224"/>
	<stop  offset="0.1883" style="stop-color:#D57E27"/>
	<stop  offset="0.3835" style="stop-color:#D27130"/>
	<stop  offset="0.5819" style="stop-color:#CE5D40"/>
	<stop  offset="0.7824" style="stop-color:#C84055"/>
	<stop  offset="0.9828" style="stop-color:#C01B71"/>
	<stop  offset="0.9955" style="stop-color:#BF1873"/>
</linearGradient>
<path class="st2" d="M283.8,82.2c-9.2-1.2-18.5,5.2-19.6,14.4L213.4,429c-1.2,9.2,5.2,18.5,14.4,19.6c1.2,0,1.7,0,2.9,0
	c8.7,0,15.6-6.3,17.3-14.4l50.8-332.4C299.4,92.6,293,83.9,283.8,82.2z"/>
</svg>
